#N canvas 473 157 450 531 12;
#X obj 182 306 osc~;
#X obj 226 110 osc~;
#X obj 182 198 +~;
#X obj 184 350 *~ 0.2;
#X obj 181 407 dac~;
#X obj 98 44 mtof;
#X msg 97 16 60;
#X obj 260 45 mtof;
#X msg 259 17 72;
#X obj 276 111 hsl 162 19 0 127 0 0 empty empty empty -2 -10 0 12 #fcfcfc #000000 #000000 0 1;
#X obj 139 78 sig~;
#X obj 227 144 *~ 10;
#X text 254 243 We want center frequency and oscilattion around it Osc are bounded When working with these mtof try to keep them as multiples for harmony;
#X connect 0 0 3 0;
#X connect 1 0 11 0;
#X connect 3 0 4 0;
#X connect 3 0 4 1;
#X connect 5 0 10 0;
#X connect 6 0 5 0;
#X connect 7 0 1 0;
#X connect 8 0 7 0;
#X connect 9 0 11 1;
#X connect 10 0 2 0;
#X connect 11 0 2 1;
