#N canvas 637 160 752 651 12;
#X declare -path Abstractions;
#X obj 301 -14 declare -path Abstractions;
#X obj 211 169 adsr, f 25;
#X obj 259 75 r ADSR;
#X obj 259 99 unpack f f f f f;
#N canvas 1451 321 727 627 gate 0;
#X obj 44 25 inlet;
#X obj 44 113 outlet;
#X msg 111 150 1;
#X msg 145 151 0;
#X msg 153 78 stop;
#X obj 153 110 del 100;
#X obj 142 41 t b b;
#X obj 214 35 inlet;
#X connect 0 0 6 0;
#X connect 0 0 2 0;
#X connect 2 0 1 0;
#X connect 3 0 1 0;
#X connect 4 0 5 0;
#X connect 5 0 3 0;
#X connect 6 0 5 0;
#X connect 6 1 4 0;
#X connect 7 0 5 1;
#X restore 146 89 pd gate;
#X obj 156 55 t b f;
#X obj 208 57 / 127;
#X obj 109 245 *~;
#X obj 320 366 rev2~, f 33;
#X obj 449 273 loadbang;
#X msg 369 316 80;
#X msg 479 319 3000;
#X msg 533 316 20;
#X obj 157 311 expr 1-\$1;
#X obj 306 228 hsl 162 19 0 1 0 0 empty empty empty -2 -10 0 12 #fcfcfc #000000 #000000 0 1;
#X obj 312 308 *~;
#X obj 121 368 *~;
#X obj 333 265 slide~ 5;
#X obj 159 343 slide~ 5;
#X obj 308 203 r reverb;
#X msg 426 317 98;
#X msg 69 112 all \$1;
#X obj 195 605 dac~;
#X obj 13 60 print;
#X obj 70 141 clone Detuner2 2;
#X obj 73 193 *~ 0.25;
#X obj 225 521 *~ 0.25;
#X obj 318 517 *~ 0.25;
#X obj 71 18 notein 1;
#X connect 1 0 7 1;
#X connect 2 0 3 0;
#X connect 3 0 4 1;
#X connect 3 1 1 2;
#X connect 3 2 1 3;
#X connect 3 3 1 4;
#X connect 3 4 1 5;
#X connect 4 0 1 0;
#X connect 5 0 4 0;
#X connect 5 1 6 0;
#X connect 6 0 1 1;
#X connect 7 0 15 0;
#X connect 7 0 16 0;
#X connect 8 0 27 0;
#X connect 9 0 10 0;
#X connect 9 0 20 0;
#X connect 9 0 12 0;
#X connect 9 0 11 0;
#X connect 10 0 8 1;
#X connect 11 0 8 3;
#X connect 12 0 8 4;
#X connect 13 0 18 0;
#X connect 14 0 17 0;
#X connect 14 0 13 0;
#X connect 15 0 8 0;
#X connect 16 0 26 0;
#X connect 17 0 15 1;
#X connect 18 0 16 1;
#X connect 19 0 14 0;
#X connect 20 0 8 2;
#X connect 21 0 24 0;
#X connect 24 0 25 0;
#X connect 25 0 7 0;
#X connect 26 0 22 0;
#X connect 26 0 22 1;
#X connect 27 0 22 0;
#X connect 27 0 22 1;
#X connect 28 0 23 0;
#X connect 28 0 21 0;
#X connect 28 1 5 0;
