#N canvas 381 181 1089 695 12;
#X declare -path Abstractions;
#X obj 636 634 dac~;
#X obj 42 118 message2symbol;
#X obj 43 53 declare -path Abstractions;
#X obj 502 275 r kick_bang;
#X obj 636 594 *~ 0.5;
#X obj 40 254 soundfiler;
#N canvas 0 50 450 250 (subpatch) 0;
#X array audioData1 20594 float 2;
#X coords 0 1 20594 -1 200 140 1;
#X restore 41 312 graph;
#X obj 42 90 r Kick;
#X obj 40 185 message2symbol, f 16;
#X obj 500 313 tabplay~ audioData1, f 17;
#X obj 829 265 tabplay~ audioData2, f 17;
#N canvas 0 50 450 250 (subpatch) 0;
#X array audioData2 20594 float 2;
#X coords 0 1 20594 -1 200 140 1 0 0;
#X restore 251 313 graph;
#X msg 42 218 read -resize \$1 audioData1;
#X obj 235 132 message2symbol;
#X obj 236 254 soundfiler;
#X obj 236 187 message2symbol;
#X obj 236 103 r Snare;
#X obj 830 237 r snare_bang;
#X msg 238 161 ../../Drums/Snare/\$1;
#X msg 238 218 read -resize \$1 audioData2;
#X obj 455 121 message2symbol;
#X obj 456 243 soundfiler;
#X obj 456 176 message2symbol;
#X obj 456 92 r Sticks;
#X msg 458 150 ../../Drums/Sticks/\$1;
#X msg 458 207 read -resize \$1 audioData3;
#N canvas 0 50 450 250 (subpatch) 0;
#X array audioData3 20594 float 2;
#X coords 0 1 20594 -1 200 140 1 0 0;
#X restore 41 479 graph;
#X obj 870 381 r sticks_bang;
#X obj 869 409 tabplay~ audioData3, f 17;
#X msg 40 145 ../../Drums/Kick/\$1;
#X obj 465 464 rev2~, f 33;
#X obj 594 371 loadbang;
#X msg 695 428 20;
#X obj 537 558 *~ 2;
#X msg 621 420 1000, f 6;
#X msg 571 415 98;
#X msg 517 421 95, f 4;
#X connect 1 0 29 0;
#X connect 3 0 9 0;
#X connect 4 0 0 0;
#X connect 4 0 0 1;
#X connect 7 0 1 0;
#X connect 8 0 12 0;
#X connect 9 0 30 0;
#X connect 10 0 4 0;
#X connect 12 0 5 0;
#X connect 13 0 18 0;
#X connect 15 0 19 0;
#X connect 16 0 13 0;
#X connect 17 0 10 0;
#X connect 18 0 15 0;
#X connect 19 0 14 0;
#X connect 20 0 24 0;
#X connect 22 0 25 0;
#X connect 23 0 20 0;
#X connect 24 0 22 0;
#X connect 25 0 21 0;
#X connect 27 0 28 0;
#X connect 29 0 8 0;
#X connect 30 0 33 0;
#X connect 31 0 36 0;
#X connect 31 0 35 0;
#X connect 31 0 32 0;
#X connect 31 0 34 0;
#X connect 32 0 30 4;
#X connect 33 0 4 0;
#X connect 34 0 30 3;
#X connect 35 0 30 2;
#X connect 36 0 30 1;
