#N canvas 351 214 1120 672 12;
#X declare -path Abstractions;
#X obj 376 462 dac~;
#X obj 478 28 declare -path Abstractions;
#X obj 423 306 adsr, f 22;
#X msg 309 248 1;
#X msg 348 248 0;
#X obj 376 354 *~;
#X obj 610 151 loadbang;
#X obj 205 9 notein;
#X obj 154 262 mtof;
#X obj 250 281 tri~;
#X obj 416 127 / 127;
#X obj 334 121 trigger b;
#X obj 344 187 del 500;
#X msg 537 253 52;
#X obj 432 387 *~ 0.3;
#X msg 504 253 100;
#X msg 572 253 50;
#X msg 612 254 100;
#X msg 202 202 50;
#X connect 2 0 5 1;
#X connect 3 0 2 0;
#X connect 4 0 2 0;
#X connect 5 0 14 0;
#X connect 6 0 15 0;
#X connect 6 0 13 0;
#X connect 6 0 16 0;
#X connect 6 0 17 0;
#X connect 7 0 11 0;
#X connect 7 0 18 0;
#X connect 7 1 10 0;
#X connect 8 0 9 0;
#X connect 9 0 5 0;
#X connect 10 0 2 1;
#X connect 11 0 3 0;
#X connect 11 0 12 0;
#X connect 12 0 4 0;
#X connect 13 0 2 3;
#X connect 14 0 0 0;
#X connect 14 0 0 1;
#X connect 15 0 2 2;
#X connect 16 0 2 4;
#X connect 17 0 2 5;
#X connect 18 0 8 0;
