#N canvas 475 215 931 600 12;
#X declare -path Abstractions;
#X obj 301 -14 declare -path Abstractions;
#X obj 211 169 adsr, f 25;
#X obj 259 75 r ADSR;
#X obj 259 99 unpack f f f f f;
#N canvas 1451 321 727 627 gate 0;
#X obj 44 25 inlet;
#X obj 44 113 outlet;
#X msg 111 150 1;
#X msg 145 151 0;
#X msg 153 78 stop;
#X obj 153 110 del 100;
#X obj 142 41 t b b;
#X obj 214 35 inlet;
#X connect 0 0 6 0;
#X connect 0 0 2 0;
#X connect 2 0 1 0;
#X connect 3 0 1 0;
#X connect 4 0 5 0;
#X connect 5 0 3 0;
#X connect 6 0 5 0;
#X connect 6 1 4 0;
#X connect 7 0 5 1;
#X restore 146 89 pd gate;
#X obj 156 55 t b f;
#X obj 208 57 / 127;
#X obj 117 528 dac~;
#X msg 63 81 all \$1;
#X obj 265 292 *~ 0.5;
#X obj 265 352 *~ 0.5;
#X obj 73 193 *~ 0.1;
#X obj 264 321 *~ 0.5;
#X obj 266 381 *~ 0.5;
#X obj 43 159 clone Detuner 6;
#X obj 145 427 *~ 0.2, f 8;
#X obj 71 18 notein;
#X connect 1 0 15 0;
#X connect 2 0 3 0;
#X connect 3 0 4 1;
#X connect 3 1 1 2;
#X connect 3 2 1 3;
#X connect 3 3 1 4;
#X connect 3 4 1 5;
#X connect 4 0 1 0;
#X connect 5 0 4 0;
#X connect 5 1 6 0;
#X connect 6 0 1 1;
#X connect 8 0 14 0;
#X connect 11 0 15 0;
#X connect 14 0 11 0;
#X connect 15 0 7 0;
#X connect 15 0 7 1;
#X connect 16 0 8 0;
#X connect 16 1 5 0;
