#N canvas 50 55 931 600 12;
#X declare -path Abstractions;
#X obj 161 50 notein;
#X obj 161 87 mtof;
#X obj 301 -14 declare -path Abstractions;
#X obj 275 192 adsr, f 25;
#X obj 323 98 r ADSR;
#X obj 323 122 unpack f f f f f;
#N canvas 1451 321 727 627 gate 0;
#X obj 44 25 inlet;
#X obj 44 113 outlet;
#X msg 111 150 1;
#X msg 145 151 0;
#X msg 153 78 stop;
#X obj 153 110 del 100;
#X obj 142 41 t b b;
#X obj 214 35 inlet;
#X connect 0 0 6 0;
#X connect 0 0 2 0;
#X connect 2 0 1 0;
#X connect 3 0 1 0;
#X connect 4 0 5 0;
#X connect 5 0 3 0;
#X connect 6 0 5 0;
#X connect 6 1 4 0;
#X connect 7 0 5 1;
#X restore 210 112 pd gate;
#X obj 220 78 t b f;
#X obj 272 80 / 127;
#X obj 173 268 *~;
#X obj 185 472 dac~;
#X obj 384 389 rev2~, f 33;
#X obj 513 296 loadbang;
#X msg 433 339 80;
#X msg 490 340 95;
#X obj 93 211 saw~;
#X msg 543 342 3000;
#X msg 597 339 20;
#X obj 221 334 expr 1-\$1;
#X obj 375 252 hsl 162 19 0 127 0 0 empty empty empty -2 -10 0 12 #fcfcfc #000000 #000000 0 1;
#X obj 376 331 *~;
#X obj 185 391 *~;
#X obj 397 288 slide~ 5;
#X obj 223 366 slide~ 5;
#X obj 372 226 r reverb;
#X connect 0 0 1 0;
#X connect 0 1 7 0;
#X connect 1 0 15 0;
#X connect 3 0 9 1;
#X connect 4 0 5 0;
#X connect 5 0 6 1;
#X connect 5 1 3 2;
#X connect 5 2 3 3;
#X connect 5 3 3 4;
#X connect 5 4 3 5;
#X connect 6 0 3 0;
#X connect 7 0 6 0;
#X connect 7 1 8 0;
#X connect 8 0 3 1;
#X connect 9 0 20 0;
#X connect 9 0 21 0;
#X connect 11 0 10 0;
#X connect 11 1 10 1;
#X connect 12 0 13 0;
#X connect 12 0 14 0;
#X connect 12 0 17 0;
#X connect 12 0 16 0;
#X connect 13 0 11 1;
#X connect 14 0 11 2;
#X connect 15 0 9 0;
#X connect 16 0 11 3;
#X connect 17 0 11 4;
#X connect 18 0 23 0;
#X connect 19 0 22 0;
#X connect 19 0 18 0;
#X connect 20 0 11 0;
#X connect 21 0 10 0;
#X connect 21 0 10 1;
#X connect 22 0 20 1;
#X connect 23 0 21 1;
#X connect 24 0 19 0;
