#N canvas 1035 236 450 300 12;
#X obj 178 31 inlet;
#X obj 176 138 mtof;
#X obj 313 56 random 10;
#X obj 178 73 +;
#X obj 312 22 loadbang;
#X obj 308 114 - 0.5;
#X obj 178 232 outlet~;
#X obj 310 88 / 10;
#X obj 177 191 saw~;
#X connect 0 0 3 0;
#X connect 1 0 8 0;
#X connect 2 0 7 0;
#X connect 3 0 1 0;
#X connect 4 0 2 0;
#X connect 5 0 3 1;
#X connect 7 0 5 0;
#X connect 8 0 6 0;
